<svg width="28" height="28" fill="none" xmlns="http://www.w3.org/2000/svg"><g clip-path="url(#clip0_20_18)" fill="#fff"><path d="M7.125.25a.982.982 0 00-.982.982v1.964h1.964V1.232A.982.982 0 007.125.25zm13.75 0a.982.982 0 00-.982.982v1.964h1.964V1.232a.982.982 0 00-.982-.982zm3.929 2.946h-2.947v3.929a.982.982 0 11-1.964 0V3.196H8.107v3.929a.982.982 0 11-1.964 0V3.196H3.196A2.946 2.946 0 00.25 6.143v18.66a2.946 2.946 0 002.946 2.947h21.608a2.946 2.946 0 002.946-2.946V6.143a2.946 2.946 0 00-2.946-2.947zm.982 21.608c0 .542-.44.982-.983.982H3.197a.982.982 0 01-.982-.982V12.036h23.572v12.768z"/><path d="M8.107 14H6.143a.982.982 0 100 1.964h1.964a.982.982 0 100-1.964zm6.875 0h-1.964a.982.982 0 100 1.964h1.964a.982.982 0 100-1.964zm6.875 0h-1.964a.982.982 0 000 1.964h1.964a.982.982 0 100-1.964zm-13.75 3.929H6.143a.982.982 0 100 1.964h1.964a.982.982 0 100-1.964zm6.875 0h-1.964a.982.982 0 100 1.964h1.964a.982.982 0 100-1.964zm6.875 0h-1.964a.982.982 0 100 1.964h1.964a.982.982 0 000-1.964zm-13.75 3.928H6.143a.982.982 0 100 1.964h1.964a.982.982 0 100-1.964zm6.875 0h-1.964a.982.982 0 100 1.964h1.964a.982.982 0 100-1.964zm6.875 0h-1.964a.982.982 0 000 1.964h1.964a.982.982 0 100-1.964z"/></g><defs><clipPath id="clip0_20_18"><path fill="#fff" transform="translate(.25 .25)" d="M0 0h27.5v27.5H0z"/></clipPath></defs></svg>