<svg width="45" height="45" fill="none" xmlns="http://www.w3.org/2000/svg"><path d="M22.5 45c-3.047 0-5.962-.593-8.745-1.78-2.783-1.186-5.178-2.783-7.185-4.79-2.007-2.007-3.604-4.402-4.79-7.185A22.073 22.073 0 010 22.5c0-3.047.593-5.962 1.78-8.745 1.186-2.783 2.783-5.178 4.79-7.185 2.007-2.007 4.402-3.604 7.185-4.79A22.073 22.073 0 0122.5 0c3.047 0 5.962.593 8.745 1.78 2.783 1.186 5.178 2.783 7.185 4.79 2.007 2.007 3.604 4.402 4.79 7.185A22.074 22.074 0 0145 22.5c0 3.047-.593 5.962-1.78 8.745-1.186 2.783-2.783 5.178-4.79 7.185-2.007 2.007-4.402 3.604-7.185 4.79A22.074 22.074 0 0122.5 45zm-9.624-32.124l-2.11-1.846c-.322 0-.703.037-1.142.11-.44.073-.835.11-1.187.11-.029-.03-.292-.571-.79-1.626-3.223 3.72-4.835 8.013-4.835 12.876 0 .088.008.205.022.352.015.146.022.249.022.307.176.176.608.506 1.297.989.688.483 1.179.872 1.472 1.165h2.813c.087-.06.168-.103.241-.132.073-.03.154-.059.242-.088l-1.296-1.428a42.758 42.758 0 00-1.297-1.385c.117-.674.278-1.692.484-3.054a172 172 0 00.439-3.054 564.925 564.925 0 015.625-2.33v-.966zm8.833-7.163c-.41-.176-.791-.337-1.143-.484a5.391 5.391 0 01-.175-.527c-.176.557-.454 1.392-.835 2.505.117.03.285.059.505.088.22.03.388.059.505.088h1.143v-1.67zm-.176 20.698a2.573 2.573 0 00-.307.352c-.352.615-.85 1.552-1.495 2.812a358.383 358.383 0 01-1.45 2.813c.41.615 1.033 1.552 1.868 2.812.835 1.26 1.457 2.197 1.868 2.813 3.808.234 6.694.41 8.657.527.058.733.293 1.23.703 1.494a19.68 19.68 0 006.768-5.603 18.965 18.965 0 003.647-8.02 20.176 20.176 0 01-1.824-.483 29.843 29.843 0 00-1.428-.418c-.293-.073-.871-.146-1.736-.22a10.037 10.037 0 00-2.702.154c-.352.03-.58-.197-.682-.68a7.185 7.185 0 01-.153-1.495c0-.513-.059-.784-.176-.813-.645-.117-1.948-.007-3.911.33s-3.267.446-3.911.33c-.381.35-1.626 1.45-3.736 3.295zm2.593-22.016a80.51 80.51 0 01-.461 2.636c-.22 1.172-.389 2.066-.506 2.68.147-.028.388-.065.725-.109.337-.044.579-.066.725-.066a2.884 2.884 0 00-.307-.176c.44-.146.762-.263.967-.351a388.67 388.67 0 00-1.143-4.614zm5.098-.396c-.059.322-.088.776-.088 1.362 0 .586-.147 1.363-.44 2.33.03.058.088.117.176.175.586-.058 1.567-.16 2.944-.307 0-.616.308-1.23.923-1.846a21.678 21.678 0 00-3.515-1.714zm5.493 3.076a3.96 3.96 0 01-.308.484c.557.087.923.16 1.099.22a24.8 24.8 0 00-.791-.704zm1.186 1.055c-.088.176-.227.44-.417.79-.19.352-.33.616-.418.792-.85.03-1.992.073-3.427.132l-.176-1.494a2.214 2.214 0 01-.308.11 1.297 1.297 0 01-.351.065v2.154c-.616.058-1.56.146-2.835.263l-2.834.264c-.205.293-.425.615-.66.967a328.36 328.36 0 001.802 3.823c-.586.147-1.787.469-3.603.967v1.494c0 .059.022.146.066.264.044.117.08.205.11.263.498.235 1.274.586 2.329 1.055 1.054.469 1.845.835 2.373 1.099l.966-1.187a18.07 18.07 0 00-.22-1.384l-.263-1.428c.088-.059.227-.14.418-.242.19-.103.33-.183.417-.242a26.394 26.394 0 011.802-.483c.38.615.915 1.494 1.604 2.637l1.296 2.153c.264-.235.63-.593 1.099-1.077.469-.483.82-.842 1.054-1.076-1.581-1.114-2.621-1.832-3.12-2.154.03-.234.088-.571.176-1.01h1.626c1.64 1.406 3.325 2.841 5.054 4.306.03 0 .059-.022.088-.066.03-.044.058-.066.088-.066-.117-.234-.498-.952-1.143-2.153 0-.03.044-.088.132-.176l.176-.175h1.801c.03-.03.279-.162.748-.396-.997-3.399-2.813-6.328-5.45-8.79z" fill="#fff"/></svg>