<svg width="61" height="54" fill="none" xmlns="http://www.w3.org/2000/svg"><path d="M25.987 1.06c3.465-.631 7.176.118 10.102 2.084 2.892 1.909 4.999 4.929 5.842 8.288 3.734.34 7.246 2.47 9.26 5.643 1.591 2.447 2.235 5.467 1.825 8.358h3.641v17.56h3.512v10.535H24.933V42.993h3.512v-7.024h-13.93c-2.248 0-4.53-.246-6.673-.96-2.271-.737-4.413-2.037-5.818-3.992-1.1-1.475-1.686-3.266-1.803-5.069v-.82c.07-2.048.726-4.073 1.932-5.735a10.599 10.599 0 015.162-3.863c.281-2.224 1.475-4.285 3.22-5.678A9.023 9.023 0 0116.34 7.85c2.013-3.523 5.63-6.099 9.646-6.79zm-.597 3.758a10.636 10.636 0 00-5.818 4.484c-.48.76-.831 1.592-1.206 2.388-.937-.129-1.861-.41-2.81-.28-2.189.233-4.155 1.93-4.647 4.073-.246.913-.059 1.873-.07 2.81-.609.128-1.218.233-1.826.386A7.106 7.106 0 005.16 21.23c-1.182 1.533-1.685 3.582-1.3 5.478.317 1.65 1.429 3.067 2.845 3.933 2.213 1.37 4.882 1.756 7.446 1.803h14.281v-7.023c7.012-.012 14.013.011 21.013-.012.55-2.67-.234-5.56-2.084-7.574a8.879 8.879 0 00-5.607-2.892c-.937-.117-1.873.012-2.798 0-.199-1.37-.35-2.774-.901-4.062-.948-2.388-2.821-4.413-5.14-5.513-2.317-1.136-5.068-1.323-7.526-.55zm6.555 24.115v14.048h21.188V28.933H31.945zm-3.512 17.56v3.512h28.212v-3.512H28.433z" fill="#fff"/></svg>