<svg width="61" height="57" fill="none" xmlns="http://www.w3.org/2000/svg"><path d="M14.15.09h45.89v31.607H14.15v-4.003a16.79 16.79 0 01-3.512-.094v28.68H.103V19.335c.023-1.323.55-2.634 1.486-3.582.925-.972 2.236-1.545 3.57-1.615-1.45-.07-2.856-.738-3.792-1.85C.629 11.445.22 10.357.103 9.256v-.574c.058-1.954 1.3-3.792 3.078-4.6 1.405-.644 3.103-.644 4.484.047 1.522.726 2.657 2.236 2.903 3.91a5.285 5.285 0 01-1.1 4.12 5.322 5.322 0 01-3.887 1.979c.937.058 1.885.327 2.67.854.608.386 1.065.972 1.673 1.358 1.23.82 2.798 1.065 4.226.702V.09zm3.512 3.512c0 3.629-.012 7.27.012 10.899.047 0 .14.011.187.011.679.644 1.311 1.335 2.002 1.979l8.861-8.862c.832.82 1.663 1.65 2.482 2.482l-8.861 8.861c.96.972 1.943 1.944 2.903 2.915-.984.983-1.955 2.002-3.09 2.821a15.456 15.456 0 01-4.484 2.283v1.182h38.865V3.59c-12.971.012-25.918.012-38.877.012zM5.042 7.149c-.96.164-1.638 1.206-1.38 2.142.21.937 1.287 1.569 2.2 1.253.902-.246 1.475-1.288 1.182-2.166-.222-.843-1.147-1.416-2.001-1.229zm-1.17 11.343c-.386.62-.316 1.475.152 2.037a12.159 12.159 0 007.785 3.676c2.962.258 6.005-.609 8.37-2.4-.831-.843-1.674-1.674-2.517-2.517a8.76 8.76 0 01-4.46 1.44A8.693 8.693 0 017.08 18.61c-.34-.28-.62-.655-1.042-.819-.761-.34-1.744-.023-2.166.702zm-.257 6.31v6.895h3.511v-5.01a16.349 16.349 0 01-3.511-1.885zm0 10.407v17.56h3.511v-17.56H3.615z" fill="#fff"/><path d="M42.362 8.87h8.78v8.78H47.63v-2.787l-7.024 7.024-3.511-3.512-5.783 5.783c-.832-.831-1.663-1.65-2.482-2.482 2.763-2.75 5.502-5.513 8.265-8.264l3.511 3.512c1.522-1.51 3.032-3.02 4.542-4.542h-2.786V8.87zM21.525 35.443a5.242 5.242 0 013.898.34c1.522.76 2.623 2.294 2.845 3.98a5.248 5.248 0 01-1.159 4.073 5.324 5.324 0 01-3.828 1.92c2.646.059 5.21 1.393 6.802 3.512 1.591-2.119 4.155-3.453 6.8-3.512a5.335 5.335 0 01-4.038-2.177 5.275 5.275 0 01-.749-4.706c.515-1.616 1.861-2.938 3.488-3.407a5.187 5.187 0 013.899.34c1.521.76 2.622 2.294 2.844 3.98a5.248 5.248 0 01-1.159 4.074 5.327 5.327 0 01-3.84 1.92c2.646.058 5.222 1.393 6.802 3.511 1.58-2.118 4.156-3.453 6.801-3.523-1.697-.07-3.324-1.007-4.226-2.447a5.279 5.279 0 01-.503-4.6 5.297 5.297 0 013.418-3.243 5.27 5.27 0 013.91.328c1.487.75 2.575 2.236 2.821 3.886a5.259 5.259 0 01-1.1 4.11 5.317 5.317 0 01-3.875 1.978c2.505.058 4.952 1.24 6.567 3.149a8.838 8.838 0 012.096 5.127v2.224H14.15c.012-1.135-.07-2.283.164-3.395.422-2.2 1.756-4.202 3.582-5.49a8.918 8.918 0 014.94-1.65c-1.814-.082-3.547-1.148-4.401-2.74a5.28 5.28 0 01-.27-4.483 5.262 5.262 0 013.36-3.079zm1.194 3.313c-.96.164-1.65 1.217-1.37 2.154.223.936 1.288 1.557 2.201 1.24.902-.245 1.475-1.287 1.183-2.177-.234-.83-1.16-1.404-2.014-1.217zm14.048 0c-.984.164-1.674 1.264-1.358 2.212.246.902 1.288 1.487 2.189 1.183.89-.246 1.463-1.288 1.182-2.166-.234-.843-1.159-1.416-2.013-1.23zm14.047 0c-.96.164-1.639 1.206-1.37 2.154.211.936 1.288 1.557 2.201 1.252.89-.245 1.475-1.276 1.183-2.165-.234-.855-1.16-1.428-2.014-1.241zM21.525 49.479c-1.604.48-2.95 1.72-3.535 3.29h10.032a5.39 5.39 0 00-1.943-2.553c-1.3-.925-3.032-1.194-4.554-.737zm13.357.269a5.291 5.291 0 00-2.75 3.02h9.938a5.353 5.353 0 00-2.845-3.067 5.3 5.3 0 00-4.343.047zm14.293-.117c-1.393.55-2.505 1.72-3.008 3.137h10.032a5.502 5.502 0 00-3.184-3.16 5.3 5.3 0 00-3.84.023z" fill="#fff"/></svg>