<svg width="61" height="48" fill="none" xmlns="http://www.w3.org/2000/svg"><path d="M1.408 12.407C11.042 8.275 20.688 4.143 30.322.01c9.588 4.097 19.175 8.218 28.762 12.315.398.164.785.375 1.206.469v.046c-4.542 1.955-9.096 3.91-13.65 5.854-.023 4.46 0 8.931-.011 13.391-5.432 2.728-10.875 5.444-16.307 8.16-5.431-2.716-10.875-5.432-16.307-8.16 0-4.46.012-8.931-.011-13.392-1.815-.772-3.618-1.545-5.432-2.317v16.716c2.142.75 3.676 2.915 3.617 5.186v9.002H1.314c.012-3.079-.012-6.157.012-9.248.035-2.189 1.557-4.226 3.605-4.94.024-6.087 0-12.174.012-18.262-1.522-.679-3.067-1.322-4.6-1.966v-.059c.386-.058.725-.246 1.065-.398zm8.17.433c2.143.984 4.332 1.862 6.498 2.81 4.752 2.037 9.505 4.074 14.246 6.11 6.52-2.786 13.04-5.583 19.561-8.381.387-.176.808-.316 1.171-.539-6.907-2.961-13.813-5.935-20.732-8.885C23.416 6.917 16.497 9.89 9.58 12.84zm8.055 7.434v9.587c4.226 2.107 8.451 4.226 12.69 6.345 4.225-2.107 8.451-4.226 12.677-6.333v-9.588c-4.238 1.792-8.452 3.63-12.69 5.42-4.214-1.826-8.44-3.64-12.677-5.431zM4.955 38.16c-.012 1.826 0 3.664-.012 5.49 1.206.012 2.411 0 3.629 0 0-1.826.012-3.664 0-5.49 0-.937-.843-1.768-1.78-1.756-.948-.035-1.826.808-1.837 1.756z" fill="#fff"/></svg>