<svg width="55" height="58" fill="none" xmlns="http://www.w3.org/2000/svg"><path fill-rule="evenodd" clip-rule="evenodd" d="M51.437 4.36H4.44v33.114h27.434a9.266 9.266 0 1117.577 0h1.986V4.36zm-3.654 36.626h7.166V.848H.928v40.138h32.614v16.8l7.12-7.12 7.121 7.12v-16.8zm-11.968-3.354a5.754 5.754 0 10-.098-.159h.098v.16zM8.954 15.312h35.124V11.8H8.954v3.512zm0 7.024H27.58v-3.512H8.954v3.512zm18.626 7.023H8.954v-3.511H27.58v3.511zm13.083 14.437c1.28 0 2.5-.26 3.608-.729v6.24L40.663 45.7l-3.61 3.609v-6.24c1.11.469 2.33.728 3.61.728z" fill="#fff"/></svg>