<svg width="130" height="97" fill="none" xmlns="http://www.w3.org/2000/svg"><path fill-rule="evenodd" clip-rule="evenodd" d="M120.512 9.247H9.092v78.77h111.42V9.247zM.212.367v96.53h129.18V.367H.212zm63.626 59.571a20.127 20.127 0 003.454-11.306c0-4.188-1.273-8.078-3.454-11.305a20.127 20.127 0 00-3.453 11.305 20.13 20.13 0 003.453 11.306zm0 12.482a28.968 28.968 0 01-16.767 5.313c-16.072 0-29.101-13.029-29.101-29.1 0-16.073 13.029-29.102 29.101-29.102a28.968 28.968 0 0116.767 5.313 28.968 28.968 0 0116.768-5.313c16.072 0 29.101 13.03 29.101 29.101 0 16.072-13.03 29.101-29.101 29.101a28.968 28.968 0 01-16.768-5.313zm-6.53-6.346a20.127 20.127 0 01-10.237 2.779c-11.168 0-20.22-9.053-20.22-20.22 0-11.168 9.052-20.221 20.22-20.221 3.736 0 7.235 1.013 10.237 2.779a28.972 28.972 0 00-5.803 17.441 28.977 28.977 0 005.803 17.442zm13.06-34.883a20.128 20.128 0 0110.238-2.78c11.167 0 20.22 9.054 20.22 20.221 0 11.168-9.053 20.221-20.22 20.221a20.127 20.127 0 01-10.238-2.78 28.972 28.972 0 005.804-17.44c0-6.543-2.16-12.582-5.804-17.442z" fill="#fff"/></svg>