<svg width="86" height="81" fill="none" xmlns="http://www.w3.org/2000/svg"><path fill-rule="evenodd" clip-rule="evenodd" d="M17.981 29.505a9.1 9.1 0 100-18.202 9.1 9.1 0 000 18.202zm0 8.88c9.93 0 17.981-8.05 17.981-17.981 0-9.93-8.05-17.981-17.98-17.981C8.05 2.423 0 10.473 0 20.403c0 9.931 8.05 17.982 17.981 17.982zm49.211 29.921a9.1 9.1 0 100-18.202 9.1 9.1 0 000 18.202zm0 8.88c9.931 0 17.982-8.05 17.982-17.98 0-9.932-8.05-17.982-17.982-17.982-9.93 0-17.98 8.05-17.98 17.981 0 9.93 8.05 17.981 17.98 17.981zM81.675 7.219L8.569 80.326l-6.28-6.28L75.397.94l6.28 6.28z" fill="#fff"/></svg>