<svg width="112" height="105" fill="none" xmlns="http://www.w3.org/2000/svg"><path fill-rule="evenodd" clip-rule="evenodd" d="M61.227 5.062H5.281v64.266h55.946a4.44 4.44 0 014.44 4.44v26.1a4.44 4.44 0 01-4.44 4.439H5.281a4.44 4.44 0 01-4.44-4.44V73.768c0-.631.132-1.232.37-1.776H.84V5.062A4.44 4.44 0 015.28.622h55.946a4.44 4.44 0 014.44 4.44v17.021h45.956v39.782H40.877V22.083h20.35V5.062zm-15.91 21.462h61.866v30.901H45.317V26.524zm43.867 43.898l3.14 3.14-11.88 11.881 30.742-.13.019 4.44-30.502.129 11.621 11.621-3.14 3.14-17.11-17.11 17.11-17.11zm-9.195-19.45h-4.932v3.009h-4.652v-3.009h-3.149v-3.769h3.149v-1.178h-3.149v-3.769h3.149V31.4h8.777c1.696 0 3.185.305 4.467.915 1.282.61 2.275 1.484 2.977 2.621.714 1.127 1.07 2.414 1.07 3.862 0 2.233-.76 3.996-2.28 5.288-1.509 1.293-3.613 1.939-6.311 1.939h-4.048v1.178h4.932v3.769zm-4.932-8.716h4.017c2.605 0 3.908-1.142 3.908-3.427 0-1.086-.33-1.96-.992-2.621-.662-.672-1.577-1.013-2.746-1.024h-4.187v7.072zM5.281 73.768h55.946v26.1H5.281v-26.1zm27.973 18.013a4.963 4.963 0 100-9.927 4.963 4.963 0 000 9.927zm0 4.44a9.404 9.404 0 100-18.807 9.404 9.404 0 000 18.807z" fill="#fff"/></svg>