<svg width="64" height="97" fill="none" xmlns="http://www.w3.org/2000/svg"><path d="M-15.294.328h75.359c1.34.132 2.585.981 3.133 2.208.377.774.34 1.66.34 2.51v73.773c.056 2.02-1.756 3.831-3.775 3.775-7.153.019-14.306 0-21.477 0L25.81 95.069c-.83.924-1.83 1.774-3.114 1.868h-.604c-1.132-.094-2.114-.736-2.85-1.585-4.246-4.247-8.511-8.493-12.758-12.758-7.153-.02-14.324 0-21.477 0-1.49.019-2.925-.944-3.491-2.34-.359-.793-.284-1.699-.284-2.548V5.235c0-.906-.075-1.85.34-2.7C-17.88 1.31-16.634.46-15.294.329zm4.077 7.549v67.186H7.278c1.283-.113 2.623.227 3.51 1.208 3.85 3.87 7.72 7.72 11.57 11.57a6765.73 6765.73 0 0111.681-11.664c.699-.698 1.68-1.114 2.661-1.095h19.25V7.896c-22.364-.02-44.766-.02-67.167-.02z" fill="#fff"/></svg>