<svg width="208" height="83" fill="none" xmlns="http://www.w3.org/2000/svg"><path d="M37.257 4.243a6 6 0 018.486 0l33.014 33.014a6 6 0 010 8.486L45.743 78.757a6 6 0 01-8.486 0L4.243 45.743a6 6 0 010-8.486L37.257 4.243zm83 0a6 6 0 018.486 0l33.014 33.014a5.998 5.998 0 010 8.486l-33.014 33.014a6.001 6.001 0 01-8.486 0L87.243 45.743a6 6 0 010-8.486l33.014-33.014z" fill="#2C2D32"/><path d="M79.257 4.243a6 6 0 018.486 0l33.014 33.014a5.998 5.998 0 010 8.486L87.743 78.757a6 6 0 01-8.486 0L46.243 45.743a6 6 0 010-8.486L79.257 4.243zm83 0a6 6 0 018.486 0l33.014 33.014a5.998 5.998 0 010 8.486l-33.014 33.014a6.001 6.001 0 01-8.486 0l-33.014-33.014a5.998 5.998 0 010-8.486l33.014-33.014z" fill="#2C2D32"/><path d="M37.144 29.536v4.384h-5.952V52H25.72V33.92h-5.952v-4.384h17.376zm9.498 7.584c.64-.981 1.44-1.75 2.4-2.304.96-.576 2.027-.864 3.2-.864v5.792h-1.504c-1.365 0-2.39.299-3.072.896-.682.576-1.024 1.6-1.024 3.072V52H41.17V34.144h5.472v2.976zm8.408 5.92c0-1.835.341-3.445 1.024-4.832.704-1.387 1.653-2.453 2.848-3.2 1.194-.747 2.528-1.12 4-1.12 1.258 0 2.357.256 3.296.768.96.512 1.696 1.184 2.208 2.016v-2.528h5.472V52h-5.472v-2.528c-.534.832-1.28 1.504-2.24 2.016-.939.512-2.038.768-3.296.768-1.45 0-2.774-.373-3.968-1.12-1.195-.768-2.144-1.845-2.848-3.232-.683-1.408-1.024-3.03-1.024-4.864zm13.376.032c0-1.365-.384-2.443-1.152-3.232-.747-.79-1.664-1.184-2.752-1.184-1.088 0-2.016.395-2.784 1.184-.747.768-1.12 1.835-1.12 3.2 0 1.365.373 2.453 1.12 3.264.768.79 1.696 1.184 2.784 1.184 1.088 0 2.005-.395 2.752-1.184.768-.79 1.152-1.867 1.152-3.232zm18.742 3.808l3.872-12.736h5.825L90.528 52h-6.752l-6.335-17.856h5.855l3.872 12.736zm30.112-4.096c0 .512-.032 1.045-.096 1.6H104.8c.085 1.11.437 1.963 1.056 2.56.64.576 1.418.864 2.336.864 1.365 0 2.314-.576 2.848-1.728h5.824a7.897 7.897 0 01-1.632 3.168c-.768.939-1.739 1.675-2.912 2.208-1.174.533-2.486.8-3.936.8-1.75 0-3.307-.373-4.672-1.12a7.962 7.962 0 01-3.2-3.2c-.768-1.387-1.152-3.008-1.152-4.864 0-1.856.373-3.477 1.12-4.864a7.962 7.962 0 013.2-3.2c1.365-.747 2.933-1.12 4.704-1.12 1.728 0 3.264.363 4.608 1.088a7.71 7.71 0 013.136 3.104c.768 1.344 1.152 2.912 1.152 4.704zm-5.6-1.44c0-.939-.32-1.685-.96-2.24-.64-.555-1.44-.832-2.4-.832-.918 0-1.696.267-2.336.8-.619.533-1.003 1.29-1.152 2.272h6.848zm15.239-13.024V52h-5.472V28.32h5.472zm10.717 0V52h-5.472V28.32h5.472zm7.997 3.968c-.96 0-1.749-.277-2.368-.832a2.823 2.823 0 01-.896-2.112c0-.853.299-1.557.896-2.112.619-.576 1.408-.864 2.368-.864.939 0 1.707.288 2.304.864.619.555.928 1.259.928 2.112 0 .832-.309 1.536-.928 2.112-.597.555-1.365.832-2.304.832zm2.72 1.856V52h-5.472V34.144h5.472zm16.126-.192c2.091 0 3.755.683 4.992 2.048 1.259 1.344 1.888 3.2 1.888 5.568V52h-5.44v-9.696c0-1.195-.309-2.123-.928-2.784-.619-.661-1.451-.992-2.496-.992s-1.877.33-2.496.992c-.619.661-.928 1.59-.928 2.784V52h-5.472V34.144h5.472v2.368c.555-.79 1.301-1.408 2.24-1.856.939-.47 1.995-.704 3.168-.704zm28.795 8.832c0 .512-.032 1.045-.096 1.6h-12.384c.085 1.11.437 1.963 1.056 2.56.64.576 1.418.864 2.336.864 1.365 0 2.314-.576 2.848-1.728h5.824a7.897 7.897 0 01-1.632 3.168c-.768.939-1.739 1.675-2.912 2.208-1.174.533-2.486.8-3.936.8-1.75 0-3.307-.373-4.672-1.12a7.962 7.962 0 01-3.2-3.2c-.768-1.387-1.152-3.008-1.152-4.864 0-1.856.373-3.477 1.12-4.864a7.962 7.962 0 013.2-3.2c1.365-.747 2.933-1.12 4.704-1.12 1.728 0 3.264.363 4.608 1.088a7.71 7.71 0 013.136 3.104c.768 1.344 1.152 2.912 1.152 4.704zm-5.6-1.44c0-.939-.32-1.685-.96-2.24-.64-.555-1.44-.832-2.4-.832-.918 0-1.696.267-2.336.8-.619.533-1.003 1.29-1.152 2.272h6.848z" fill="#fff"/></svg>