<svg width="33" height="40" fill="none" xmlns="http://www.w3.org/2000/svg"><path d="M5.46.873L7.946.19c2.333-.641 4.821.396 5.822 2.422l1.984 4.037c.864 1.757.386 3.825-1.187 5.111l-4.376 3.579c.268 2.142 1.104 4.25 2.504 6.323 1.33 2.007 3.115 3.764 5.247 5.166l5.256-1.513c1.994-.571 4.163.087 5.383 1.634l2.849 3.603c1.42 1.799 1.166 4.28-.596 5.804l-1.89 1.634c-1.88 1.626-4.568 2.217-7.051 1.548-5.866-1.576-11.258-6.255-16.18-14.038C.785 17.705-.955 11.089.496 5.659 1.105 3.372 2.992 1.551 5.46.872z" fill="#fff"/></svg>