<svg width="178" height="203" fill="none" xmlns="http://www.w3.org/2000/svg"><path opacity=".1" fill-rule="evenodd" clip-rule="evenodd" d="M93.438-24.921a6.59 6.59 0 00-8.939 0L69.388-10.98l-20.034-4.396a6.59 6.59 0 00-7.696 4.448L35.436 8.721l-19.632 6.227a6.59 6.59 0 00-4.44 7.718l4.502 20.167L1.942 57.947a6.59 6.59 0 00-.015 8.914L15.87 82.103l-4.506 20.181a6.591 6.591 0 004.44 7.719l19.632 6.226 6.222 19.648c.197.623.48 1.197.83 1.714l-12.544 46.658a6.59 6.59 0 009.126 7.695l17.524-8.086 11.098 15.782a6.591 6.591 0 0011.76-2.094l10.7-40.158 10.835 40.658a6.59 6.59 0 0011.76 2.095l11.097-15.782 17.524 8.086a6.59 6.59 0 009.13-7.681l-13.519-50.735 5.542-17.806 19.612-6.22a6.591 6.591 0 004.439-7.719l-4.505-20.181L176.01 66.86a6.59 6.59 0 00-.016-8.914L162.07 42.833l4.502-20.167a6.59 6.59 0 00-4.439-7.718l-19.612-6.22-6.108-19.624a6.59 6.59 0 00-7.698-4.48l-20.163 4.4L93.438-24.92zm31.343 164.368l-16.229-3.628-8.419 7.828 9.955 37.359 6.135-8.726a6.592 6.592 0 018.153-2.193l9.771 4.508-9.366-35.148zm-78.453 34.631l9.464-35.2 13.596-3.056 10.314 9.59-9.351 35.093-6.136-8.726a6.59 6.59 0 00-8.153-2.193l-9.734 4.492zM75.801 1.039L88.968-11.11l13.168 12.15a6.59 6.59 0 005.874 1.595l17.613-3.844 5.334 17.138a6.59 6.59 0 004.3 4.324l17.135 5.434-3.938 17.64a6.591 6.591 0 001.585 5.902l12.161 13.2-12.176 13.31a6.59 6.59 0 00-1.57 5.884l3.938 17.64-17.135 5.435a6.588 6.588 0 00-4.3 4.324l-5.325 17.108-17.589-3.932a6.592 6.592 0 00-5.926 1.605l-13.149 12.225-13.148-12.225a6.59 6.59 0 00-5.933-1.603l-17.489 3.93-5.428-17.14a6.59 6.59 0 00-4.29-4.292l-17.135-5.435 3.938-17.64a6.59 6.59 0 00-1.57-5.884l-12.176-13.31 12.16-13.2a6.59 6.59 0 001.586-5.902l-3.938-17.64 17.134-5.434a6.59 6.59 0 004.291-4.293l5.438-17.17 17.511 3.843a6.59 6.59 0 005.882-1.594zM62.235 35.527a37.695 37.695 0 0126.733-11.086c9.995 0 19.685 4.05 26.699 11.176 7.079 7.192 11.115 16.812 11.115 26.796 0 10.045-3.953 19.753-11.08 26.885a37.696 37.696 0 01-26.734 11.086c-9.955 0-19.55-4.024-26.733-11.086-7.05-7.181-11.08-16.783-11.08-26.885 0-10.161 3.946-19.746 11.08-26.886zM88.968 11.26a50.877 50.877 0 00-36.057 14.95c-9.627 9.634-14.938 22.58-14.938 36.203 0 13.664 5.464 26.578 14.903 36.167l.029.03.04.04c9.575 9.439 22.48 14.916 36.023 14.916a50.875 50.875 0 0036.058-14.95c9.634-9.642 14.937-22.716 14.937-36.203 0-13.55-5.47-26.461-14.902-36.043-9.497-9.647-22.572-15.11-36.093-15.11z" fill="#fff"/></svg>