<svg width="30" height="26" fill="none" xmlns="http://www.w3.org/2000/svg"><path d="M4.5 11.375c1.655 0 3-1.457 3-3.25s-1.345-3.25-3-3.25-3 1.457-3 3.25 1.345 3.25 3 3.25zm21 0c1.655 0 3-1.457 3-3.25s-1.345-3.25-3-3.25-3 1.457-3 3.25 1.345 3.25 3 3.25zM27 13h-3c-.825 0-1.57.36-2.114.944 1.889 1.123 3.23 3.149 3.52 5.556H28.5c.83 0 1.5-.726 1.5-1.625V16.25c0-1.793-1.345-3.25-3-3.25zm-12 0c2.902 0 5.25-2.544 5.25-5.688 0-3.143-2.348-5.687-5.25-5.687S9.75 4.169 9.75 7.313C9.75 10.456 12.098 13 15 13zm3.6 1.625h-.39c-.974.508-2.057.813-3.21.813s-2.231-.305-3.21-.813h-.39c-2.981 0-5.4 2.62-5.4 5.85v1.462c0 1.346 1.008 2.438 2.25 2.438h13.5c1.242 0 2.25-1.092 2.25-2.438v-1.462c0-3.23-2.419-5.85-5.4-5.85zm-10.486-.68C7.57 13.36 6.825 13 6 13H3c-1.655 0-3 1.457-3 3.25v1.625c0 .899.67 1.625 1.5 1.625h3.09c.294-2.407 1.635-4.433 3.524-5.556z" fill="#7F2736"/></svg>