<svg width="89" height="89" fill="none" xmlns="http://www.w3.org/2000/svg"><g clip-path="url(#clip0_0_757)"><path d="M43.256.3h1.925c7.15.155 14.265 2.046 20.487 5.569 7.992 4.452 14.54 11.447 18.408 19.748 2.681 5.655 4.073 11.894 4.16 18.15v1.204c-.104 6.428-1.6 12.839-4.435 18.614a44.08 44.08 0 01-12.186 15.159 43.467 43.467 0 01-15.864 8.044c-3.438.945-6.995 1.41-10.553 1.53h-1.874c-7.528-.172-15.022-2.27-21.501-6.136A44.471 44.471 0 018.245 69.635C3.243 62.536.442 53.942.252 45.28v-1.667a43.889 43.889 0 015.432-20.505c3.506-6.342 8.576-11.825 14.678-15.76C27.134 2.912 35.177.488 43.256.3zM61.37 27.542L20.173 43.425c-.808.36-1.788.825-2.011 1.753-.069.876.876 1.358 1.581 1.598 3.661 1.152 7.34 2.286 11 3.438L55.957 34.33c.464-.275 1.22-.635 1.65-.154.035.36-.292.584-.515.808-6.566 5.93-13.115 11.859-19.68 17.772-.172.206-.516.326-.516.636l-.773 11.034c.687 0 1.375-.258 1.873-.756a850.067 850.067 0 005.655-5.449c3.523 2.578 7.012 5.174 10.536 7.752.687.532 1.547.945 2.44.894.67-.052 1.238-.533 1.53-1.1.499-.912.585-1.977.825-2.974 2.286-10.742 4.555-21.484 6.84-32.227.207-.962.293-2.08-.274-2.939-.464-.721-1.392-.98-2.2-.79-.67.154-1.306.464-1.977.704z" fill="#039BE5"/></g><defs><clipPath id="clip0_0_757"><path fill="#fff" transform="translate(.252 .3)" d="M0 0h88v88H0z"/></clipPath></defs></svg>