<svg width="49" height="54" fill="none" xmlns="http://www.w3.org/2000/svg"><path fill-rule="evenodd" clip-rule="evenodd" d="M3.5 47.128c-1.351 0-2.45-.836-2.45-1.864V22.366c0-1.028 1.099-1.864 2.45-1.864h42c1.351 0 2.45.836 2.45 1.864v22.898c0 1.028-1.099 1.864-2.45 1.864h-42z" fill="#EE5060"/><path fill-rule="evenodd" clip-rule="evenodd" d="M5.6 47.926a4.32 4.32 0 00-1.945.45c-.575.292-1.024.708-1.289 1.194a2.078 2.078 0 00-.199 1.538c.135.517.469.991.958 1.364.49.372 1.113.626 1.792.728.68.103 1.383.05 2.022-.151.64-.202 1.187-.543 1.571-.98.385-.439.59-.953.59-1.48v-2.663H5.6z" fill="#2C2D32"/><path d="M5.6 52.188c1.16 0 2.1-.716 2.1-1.598 0-.883-.94-1.598-2.1-1.598-1.16 0-2.1.715-2.1 1.598 0 .882.94 1.597 2.1 1.597z" fill="#495E74"/><path fill-rule="evenodd" clip-rule="evenodd" d="M43.4 47.926a4.32 4.32 0 011.944.45c.576.292 1.025.708 1.29 1.194.264.486.334 1.022.199 1.538-.135.517-.469.991-.958 1.364-.49.372-1.113.626-1.792.728a4.531 4.531 0 01-2.022-.151c-.64-.202-1.187-.543-1.571-.98-.385-.439-.59-.953-.59-1.48v-2.663h3.5z" fill="#2C2D32"/><path d="M43.4 52.188c1.16 0 2.1-.716 2.1-1.598 0-.883-.94-1.598-2.1-1.598-1.16 0-2.1.715-2.1 1.598 0 .882.94 1.597 2.1 1.597z" fill="#495E74"/><path fill-rule="evenodd" clip-rule="evenodd" d="M33.6 19.703V3.728c0-.424-.221-.83-.615-1.13-.394-.3-.928-.468-1.485-.468h-14c-.557 0-1.091.168-1.485.468-.394.3-.615.706-.615 1.13v15.975h-2.8V2.663c0-.707.369-1.384 1.025-1.883C14.281.28 15.172 0 16.1 0h16.8c.928 0 1.819.28 2.475.78.656.5 1.025 1.176 1.025 1.883v17.04h-2.8z" fill="#495E74"/><path fill-rule="evenodd" clip-rule="evenodd" d="M36.37 3.195v-.753C36.223 1.077 34.735 0 32.9 0H16.1c-.928 0-1.819.28-2.475.78-.656.5-1.025 1.176-1.025 1.883v2.13c0 .282.148.553.41.753.263.2.619.312.99.312s.727-.112.99-.312c.262-.2.41-.47.41-.753V3.728c0-.424.221-.83.615-1.13.394-.3.928-.468 1.485-.468h14c.557 0 1.091.168 1.485.468.394.3.615.706.615 1.13v1.065c0 .282.148.553.41.753.263.2.619.312.99.312s.727-.112.99-.312c.262-.2.41-.47.41-.753V3.195h-.03z" fill="#2C2D32"/><path fill-rule="evenodd" clip-rule="evenodd" d="M33.63 19.703h5.612l4.158 3.163-12.648 9.623-6.965-5.298 9.842-7.488z" fill="#EBECED"/><path fill-rule="evenodd" clip-rule="evenodd" d="M12.6 19.703h2.8v25.029h-2.8V19.703zm21 0h2.8v25.029h-2.8V19.703z" fill="#B25A59"/><path fill-rule="evenodd" clip-rule="evenodd" d="M15.4 32.484h-2.8a1.65 1.65 0 00-.99.312c-.262.2-.41.47-.41.753v2.13c0 .283.148.554.41.753.263.2.619.313.99.313h2.8c.371 0 .727-.113.99-.313.262-.2.41-.47.41-.753v-2.13c0-.282-.148-.553-.41-.753a1.649 1.649 0 00-.99-.312zm0 3.195h-2.8v-2.13h2.8v2.13z" fill="#F0C419"/><path fill-rule="evenodd" clip-rule="evenodd" d="M35 42.602l-1.4-1.065v6.39h2.8v-6.39L35 42.602zm-22.4-1.065v6.39h2.8v-6.39L14 42.602l-1.4-1.065zm1.4-9.053a.825.825 0 00.495-.156.478.478 0 00.205-.377.478.478 0 00-.205-.376.824.824 0 00-.495-.156.824.824 0 00-.495.156.478.478 0 00-.205.376c0 .142.074.277.205.377.131.1.31.156.495.156zm0-2.663a.825.825 0 00.495-.156.478.478 0 00.205-.376.478.478 0 00-.205-.377.824.824 0 00-.495-.156.824.824 0 00-.495.156.478.478 0 00-.205.377c0 .14.074.276.205.376.131.1.31.156.495.156zm0-2.662a.824.824 0 00.495-.156.478.478 0 00.205-.377.478.478 0 00-.205-.377.825.825 0 00-.495-.155.825.825 0 00-.495.155.478.478 0 00-.205.377.48.48 0 00.205.377c.131.1.31.156.495.156zm0-2.663a.824.824 0 00.495-.156.478.478 0 00.205-.377.478.478 0 00-.205-.376.825.825 0 00-.495-.156.825.825 0 00-.495.156.478.478 0 00-.205.377c0 .14.074.276.205.376.131.1.31.156.495.156zm21 7.988a.825.825 0 00.495-.156.478.478 0 00.205-.377.478.478 0 00-.205-.376.824.824 0 00-.495-.156.824.824 0 00-.495.156.478.478 0 00-.205.376c0 .142.074.277.205.377.131.1.31.156.495.156zm0-2.663a.825.825 0 00.495-.156.478.478 0 00.205-.376.478.478 0 00-.205-.377.824.824 0 00-.495-.156.824.824 0 00-.495.156.478.478 0 00-.205.377c0 .14.074.276.205.376.131.1.31.156.495.156zm0-2.662a.824.824 0 00.495-.156.478.478 0 00.205-.377.478.478 0 00-.205-.377.825.825 0 00-.495-.155.825.825 0 00-.495.155.478.478 0 00-.205.377.48.48 0 00.205.377c.131.1.31.156.495.156zm0-2.663a.824.824 0 00.495-.156.478.478 0 00.205-.377.478.478 0 00-.205-.376.825.825 0 00-.495-.156.825.825 0 00-.495.156.478.478 0 00-.205.377c0 .14.074.276.205.376.131.1.31.156.495.156zm-21 10.65a.825.825 0 00.495-.156.478.478 0 00.205-.376.478.478 0 00-.205-.377.824.824 0 00-.495-.156.824.824 0 00-.495.156.478.478 0 00-.205.377.48.48 0 00.205.377c.131.1.31.155.495.155zm21 0a.825.825 0 00.495-.156.478.478 0 00.205-.376.478.478 0 00-.205-.377.824.824 0 00-.495-.156.824.824 0 00-.495.156.478.478 0 00-.205.377.48.48 0 00.205.377c.131.1.31.155.495.155z" fill="#90241D"/><path fill-rule="evenodd" clip-rule="evenodd" d="M15.4 33.549v2.13h-2.8l-.99.753c.254.193.604.313.99.313h2.8c.371 0 .727-.113.99-.313.262-.2.41-.47.41-.753v-2.13c0-.294-.157-.56-.41-.753l-.99.753z" fill="#FCF062"/><path fill-rule="evenodd" clip-rule="evenodd" d="M36.4 32.484h-2.8c-.371 0-.727.112-.99.312s-.41.47-.41.753v2.13c0 .283.147.554.41.753.263.2.619.313.99.313h2.8c.371 0 .727-.113.99-.313s.41-.47.41-.753v-2.13c0-.282-.147-.553-.41-.753a1.649 1.649 0 00-.99-.312zm0 3.195h-2.8v-2.13h2.8v2.13z" fill="#F0C419"/><path fill-rule="evenodd" clip-rule="evenodd" d="M36.4 33.549v2.13h-2.8l-.99.753c.254.193.604.313.99.313h2.8c.371 0 .727-.113.99-.313s.41-.47.41-.753v-2.13c0-.294-.157-.56-.41-.753l-.99.753z" fill="#FCF062"/><path d="M45.5 21.3c.772 0 1.4.479 1.4 1.066v22.898c0 .588-.628 1.065-1.4 1.065h-42c-.772 0-1.4-.477-1.4-1.065V22.366c0-.587.628-1.065 1.4-1.065h42zm0-1.597h-42c-.928 0-1.819.28-2.475.78C.37 20.983 0 21.66 0 22.366v22.898c0 .706.369 1.384 1.025 1.883.657.5 1.547.78 2.475.78h42c.928 0 1.819-.28 2.475-.78.656-.5 1.025-1.176 1.025-1.883V22.366c0-.706-.369-1.383-1.025-1.883-.657-.5-1.547-.78-2.475-.78z" fill="#B25A59"/></svg>